{
	"asset":{
		"generator":"Khronos glTF Blender I/O v4.2.70",
		"version":"2.0"
	},
	"scene":0,
	"scenes":[
		{
			"name":"Scene",
			"nodes":[
				0,
				1
			]
		}
	],
	"nodes":[
		{
			"mesh":0,
			"name":"Walls",
			"scale":[
				100,
				100,
				100
			],
			"translation":[
				0,
				0.009999999776482582,
				0
			]
		},
		{
			"mesh":1,
			"name":"Floor",
			"scale":[
				250,
				0,
				500
			]
		}
	],
	"materials":[
		{
			"doubleSided":true,
			"name":"Material.003"
		},
		{
			"doubleSided":true,
			"name":"Material.001",
			"pbrMetallicRoughness":{
				"baseColorFactor":[
					0.800000011920929,
					0.800000011920929,
					0.800000011920929,
					1
				],
				"metallicFactor":0,
				"roughnessFactor":0.5
			}
		}
	],
	"meshes":[
		{
			"name":"Walls",
			"primitives":[
				{
					"attributes":{
						"POSITION":0,
						"NORMAL":1,
						"TEXCOORD_0":2
					},
					"indices":3,
					"material":0
				}
			]
		},
		{
			"name":"Floor",
			"primitives":[
				{
					"attributes":{
						"POSITION":4,
						"NORMAL":5,
						"TEXCOORD_0":6
					},
					"indices":7,
					"material":1
				}
			]
		}
	],
	"accessors":[
		{
			"bufferView":0,
			"componentType":5126,
			"count":1598,
			"max":[
				2.227496385574341,
				2.8344006538391113,
				4.905943393707275
			],
			"min":[
				-2.1039230823516846,
				-0.02051037736237049,
				-4.963223457336426
			],
			"type":"VEC3"
		},
		{
			"bufferView":1,
			"componentType":5126,
			"count":1598,
			"type":"VEC3"
		},
		{
			"bufferView":2,
			"componentType":5126,
			"count":1598,
			"type":"VEC2"
		},
		{
			"bufferView":3,
			"componentType":5123,
			"count":2556,
			"type":"SCALAR"
		},
		{
			"bufferView":4,
			"componentType":5126,
			"count":4,
			"max":[
				1,
				0,
				1
			],
			"min":[
				-1,
				0,
				-1
			],
			"type":"VEC3"
		},
		{
			"bufferView":5,
			"componentType":5126,
			"count":4,
			"type":"VEC3"
		},
		{
			"bufferView":6,
			"componentType":5126,
			"count":4,
			"type":"VEC2"
		},
		{
			"bufferView":7,
			"componentType":5123,
			"count":6,
			"type":"SCALAR"
		}
	],
	"bufferViews":[
		{
			"buffer":0,
			"byteLength":19176,
			"byteOffset":0,
			"target":34962
		},
		{
			"buffer":0,
			"byteLength":19176,
			"byteOffset":19176,
			"target":34962
		},
		{
			"buffer":0,
			"byteLength":12784,
			"byteOffset":38352,
			"target":34962
		},
		{
			"buffer":0,
			"byteLength":5112,
			"byteOffset":51136,
			"target":34963
		},
		{
			"buffer":0,
			"byteLength":48,
			"byteOffset":56248,
			"target":34962
		},
		{
			"buffer":0,
			"byteLength":48,
			"byteOffset":56296,
			"target":34962
		},
		{
			"buffer":0,
			"byteLength":32,
			"byteOffset":56344,
			"target":34962
		},
		{
			"buffer":0,
			"byteLength":12,
			"byteOffset":56376,
			"target":34963
		}
	],
	"buffers":[
		{
			"byteLength":56388,
			"uri":"New_Layout.bin"
		}
	]
}
